<?xml version="1.0" standalone="no"?>
<!DOCTYPE svg PUBLIC "-//W3C//DTD SVG 20010904//EN"
 "http://www.w3.org/TR/2001/REC-SVG-20010904/DTD/svg10.dtd">
<svg version="1.0" xmlns="http://www.w3.org/2000/svg"
 width="150.000000pt" height="150.000000pt" viewBox="0 0 150.000000 150.000000"
 preserveAspectRatio="xMidYMid meet">
<metadata>
Created by potrace 1.14, written by Peter Selinger 2001-2017
</metadata>
<g transform="translate(0.000000,150.000000) scale(0.100000,-0.100000)"
fill="#000000" stroke="none">
<path d="M706 1242 c-3 -5 1 -9 9 -9 8 0 12 4 9 9 -3 4 -7 8 -9 8 -2 0 -6 -4
-9 -8z"/>
<path d="M833 1225 c-3 -9 -3 -18 -1 -21 3 -3 8 4 11 16 6 23 -1 27 -10 5z"/>
<path d="M620 1226 c0 -2 7 -9 15 -16 9 -7 15 -8 15 -2 0 5 -7 12 -15 16 -8 3
-15 4 -15 2z"/>
<path d="M676 1215 c4 -8 8 -15 10 -15 2 0 4 7 4 15 0 8 -4 15 -10 15 -5 0 -7
-7 -4 -15z"/>
<path d="M739 1223 c-1 -5 -1 -11 0 -15 2 -12 -17 -10 -22 2 -3 6 -4 5 -3 -2
4 -19 29 -16 32 5 1 9 0 17 -2 17 -2 0 -5 -3 -5 -7z"/>
<path d="M761 1214 c0 -11 3 -14 6 -6 3 7 2 16 -1 19 -3 4 -6 -2 -5 -13z"/>
<path d="M870 1210 c12 -22 25 -26 35 -10 4 6 -1 7 -11 3 -11 -4 -15 -2 -11 4
4 6 0 14 -8 17 -13 4 -14 2 -5 -14z"/>
<path d="M790 1210 c0 -5 5 -10 10 -10 6 0 10 5 10 10 0 6 -4 10 -10 10 -5 0
-10 -4 -10 -10z"/>
<path d="M590 1200 c0 -5 7 -7 15 -4 8 4 15 8 15 10 0 2 -7 4 -15 4 -8 0 -15
-4 -15 -10z"/>
<path d="M575 1185 c4 -16 0 -21 -15 -22 -11 -1 -19 3 -17 9 3 17 -17 19 -37
5 -15 -11 -16 -16 -6 -22 8 -5 11 -4 7 2 -4 6 0 14 9 17 22 8 24 8 22 -6 -3
-14 40 -20 48 -7 3 5 0 17 -6 26 -10 16 -10 16 -5 -2z"/>
<path d="M915 1189 c-11 -16 -1 -19 13 -3 7 8 8 14 3 14 -5 0 -13 -5 -16 -11z"/>
<path d="M610 1176 c0 -22 16 -28 30 -12 6 8 19 13 29 11 10 -2 24 1 31 5 9 6
3 8 -17 6 -17 -1 -39 -9 -49 -16 -16 -13 -17 -13 -11 3 3 9 2 17 -3 17 -6 0
-10 -6 -10 -14z"/>
<path d="M737 1178 c-7 -5 0 -6 17 -4 16 3 31 7 33 10 8 8 -37 2 -50 -6z"/>
<path d="M810 1186 c0 -2 7 -7 16 -10 8 -3 12 -2 9 4 -6 10 -25 14 -25 6z"/>
<path d="M850 1180 c0 -5 5 -10 10 -10 6 0 10 5 10 10 0 6 -4 10 -10 10 -5 0
-10 -4 -10 -10z"/>
<path d="M940 1180 c-8 -5 -10 -10 -5 -10 6 0 17 5 25 10 8 5 11 10 5 10 -5 0
-17 -5 -25 -10z"/>
<path d="M975 1170 c-7 -12 -7 -12 22 -15 12 -1 20 1 17 6 -2 4 -12 5 -21 2
-11 -4 -14 -3 -9 5 4 7 5 12 2 12 -3 0 -8 -4 -11 -10z"/>
<path d="M699 1168 c-7 -33 -7 -48 0 -53 5 -3 13 0 17 6 4 7 3 9 -4 5 -7 -4
-10 1 -9 14 1 21 12 27 20 10 3 -6 4 -5 3 2 -2 10 -25 25 -27 16z"/>
<path d="M779 1168 c-8 -34 -8 -51 0 -38 5 8 7 18 5 22 -3 4 4 8 16 8 12 0 19
-4 15 -9 -3 -5 -1 -12 4 -15 5 -4 8 2 7 11 -2 15 -44 33 -47 21z"/>
<path d="M875 1160 c-4 -6 -4 -14 -1 -17 3 -4 6 -1 6 5 0 21 16 13 17 -8 1
-13 -2 -18 -9 -14 -7 4 -8 2 -4 -5 11 -17 26 -3 22 21 -3 25 -21 35 -31 18z"/>
<path d="M751 1144 c0 -11 3 -14 6 -6 3 7 2 16 -1 19 -3 4 -6 -2 -5 -13z"/>
<path d="M841 1144 c0 -11 3 -14 6 -6 3 7 2 16 -1 19 -3 4 -6 -2 -5 -13z"/>
<path d="M504 1136 c-13 -10 -14 -15 -4 -21 9 -5 11 -4 6 3 -7 12 5 16 32 13
16 -2 15 6 -2 12 -8 3 -22 0 -32 -7z"/>
<path d="M596 1135 c4 -8 8 -15 10 -15 2 0 4 7 4 15 0 8 -4 15 -10 15 -5 0 -7
-7 -4 -15z"/>
<path d="M951 1141 c-11 -7 -9 -10 8 -16 12 -3 19 -10 16 -15 -3 -5 -1 -11 4
-14 5 -4 8 2 7 11 -2 9 -8 19 -14 21 -7 2 -10 8 -6 13 7 11 3 11 -15 0z"/>
<path d="M630 1130 c0 -5 7 -7 15 -4 8 4 15 8 15 10 0 2 -7 4 -15 4 -8 0 -15
-4 -15 -10z"/>
<path d="M998 1133 c7 -3 16 -2 19 1 4 3 -2 6 -13 5 -11 0 -14 -3 -6 -6z"/>
<path d="M473 1113 c0 -11 7 -20 14 -20 10 0 10 4 1 16 -7 9 -13 18 -15 20 -1
2 -1 -5 0 -16z"/>
<path d="M568 1123 c-21 -5 -23 -19 -5 -29 6 -4 9 -4 5 1 -4 4 0 14 10 21 18
14 17 14 -10 7z"/>
<path d="M670 1121 c0 -6 4 -13 10 -16 6 -3 7 1 4 9 -7 18 -14 21 -14 7z"/>
<path d="M790 1120 c0 -5 5 -10 10 -10 6 0 10 5 10 10 0 6 -4 10 -10 10 -5 0
-10 -4 -10 -10z"/>
<path d="M855 1120 c-3 -5 -3 -10 2 -10 4 0 1 -5 -7 -10 -8 -5 -10 -10 -5 -10
6 0 17 5 25 10 11 7 11 10 2 10 -7 0 -10 5 -7 10 3 6 4 10 1 10 -3 0 -8 -4
-11 -10z"/>
<path d="M916 1113 c-6 -14 -5 -15 5 -6 7 7 10 15 7 18 -3 3 -9 -2 -12 -12z"/>
<path d="M1030 1120 c0 -5 5 -10 10 -10 6 0 10 5 10 10 0 6 -4 10 -10 10 -5 0
-10 -4 -10 -10z"/>
<path d="M520 1114 c0 -6 6 -16 13 -23 10 -11 9 -13 -5 -8 -10 4 -18 2 -18 -3
0 -12 27 -13 34 -2 2 4 -2 16 -10 27 -8 10 -14 14 -14 9z"/>
<path d="M819 1108 c-1 -7 -1 -16 0 -20 0 -5 -8 -8 -20 -8 -11 0 -18 4 -14 9
3 5 1 12 -4 15 -5 4 -8 -2 -7 -11 4 -28 48 -24 52 5 2 12 2 22 -1 22 -3 0 -6
-6 -6 -12z"/>
<path d="M435 1100 c-8 -13 4 -32 16 -25 5 4 9 -3 9 -13 0 -15 -5 -19 -19 -15
-10 3 -21 1 -24 -4 -3 -5 7 -8 21 -7 22 1 27 6 27 25 0 14 -5 23 -12 22 -7 -2
-13 1 -13 6 0 5 6 12 13 14 9 4 9 6 0 6 -6 1 -15 -3 -18 -9z"/>
<path d="M619 1101 c8 -5 20 -7 28 -4 8 3 13 0 11 -8 -2 -7 5 -15 15 -17 9 -2
17 1 17 7 0 6 -7 8 -15 4 -10 -3 -15 -1 -13 8 2 8 -8 14 -27 15 -20 2 -25 0
-16 -5z"/>
<path d="M730 1100 c8 -5 20 -10 25 -10 6 0 3 5 -5 10 -8 5 -19 10 -25 10 -5
0 -3 -5 5 -10z"/>
<path d="M939 1103 c-1 -5 -1 -12 0 -17 1 -5 -5 -6 -14 -3 -8 4 -15 2 -15 -4
0 -6 8 -9 17 -7 9 2 15 7 14 12 -2 5 3 13 11 17 10 7 10 9 1 9 -7 0 -14 -3
-14 -7z"/>
<path d="M1010 1100 c8 -5 20 -10 25 -10 6 0 3 5 -5 10 -8 5 -19 10 -25 10 -5
0 -3 -5 5 -10z"/>
<path d="M1072 1090 c7 -10 14 -18 15 -16 6 6 -9 36 -18 36 -5 0 -4 -9 3 -20z"/>
<path d="M390 1096 c0 -2 7 -7 16 -10 8 -3 12 -2 9 4 -6 10 -25 14 -25 6z"/>
<path d="M579 1083 c-1 -4 -1 -12 0 -17 1 -5 -4 -6 -12 -3 -8 3 -20 1 -28 -4
-9 -5 -4 -7 16 -5 17 1 29 8 28 14 -2 7 6 12 16 12 14 0 19 -6 16 -20 -2 -11
1 -23 7 -26 7 -4 8 -2 4 4 -7 12 4 16 34 13 13 -2 13 0 1 8 -8 5 -20 7 -28 4
-8 -3 -13 0 -11 8 2 8 -7 15 -19 17 -13 2 -24 0 -24 -5z"/>
<path d="M873 1073 c0 -12 4 -20 8 -17 4 2 10 -3 13 -12 3 -9 11 -12 18 -8 8
5 9 2 5 -9 -3 -10 -2 -17 4 -17 6 0 9 7 7 16 -2 8 -7 14 -12 14 -5 -1 -17 11
-27 26 -16 25 -18 26 -16 7z"/>
<path d="M948 1068 c-10 -10 -14 -18 -9 -18 10 0 36 29 30 34 -2 1 -12 -6 -21
-16z"/>
<path d="M1044 1079 c-4 -7 -3 -9 4 -5 7 4 10 -1 9 -14 -1 -21 -12 -27 -20
-10 -3 6 -4 5 -3 -2 4 -22 29 -15 32 9 4 25 -11 39 -22 22z"/>
<path d="M493 1060 c1 -14 6 -23 11 -22 5 2 13 -2 18 -10 8 -11 9 -11 6 0 -2
8 -8 13 -13 12 -6 -1 -13 9 -17 22 -7 22 -7 22 -5 -2z"/>
<path d="M979 1068 c-1 -7 -1 -16 0 -20 0 -5 -6 -8 -14 -8 -8 0 -15 -5 -15
-10 0 -20 36 8 37 29 2 22 -6 30 -8 9z"/>
<path d="M395 1060 c-13 -6 -15 -9 -5 -9 8 0 22 4 30 9 18 12 2 12 -25 0z"/>
<path d="M700 1057 c0 -9 -5 -16 -12 -14 -6 1 -13 -6 -14 -16 -1 -12 0 -13 3
-2 2 8 9 13 14 9 11 -6 25 24 15 33 -3 4 -6 -1 -6 -10z"/>
<path d="M740 1066 c0 -2 7 -6 15 -10 8 -3 15 -1 15 4 0 6 -7 10 -15 10 -8 0
-15 -2 -15 -4z"/>
<path d="M830 1060 c0 -5 7 -7 15 -4 8 4 15 8 15 10 0 2 -7 4 -15 4 -8 0 -15
-4 -15 -10z"/>
<path d="M1001 1054 c0 -11 3 -14 6 -6 3 7 2 16 -1 19 -3 4 -6 -2 -5 -13z"/>
<path d="M1110 1060 c8 -5 20 -10 25 -10 6 0 3 5 -5 10 -8 5 -19 10 -25 10 -5
0 -3 -5 5 -10z"/>
<path d="M355 1040 c-3 -5 -1 -10 4 -10 6 0 11 5 11 10 0 6 -2 10 -4 10 -3 0
-8 -4 -11 -10z"/>
<path d="M596 1027 c5 -20 3 -27 -7 -25 -7 2 -14 -5 -15 -15 -1 -12 0 -13 3
-2 2 8 9 13 14 9 15 -9 22 23 10 43 -9 15 -10 13 -5 -10z"/>
<path d="M779 1043 c-1 -4 -1 -16 0 -25 2 -14 -4 -17 -31 -15 -18 2 -41 0 -51
-5 -12 -6 -23 -5 -33 3 -12 10 -13 9 -8 -6 5 -12 4 -16 -3 -12 -6 4 -16 0 -23
-8 -7 -8 -18 -15 -24 -15 -6 0 -2 7 8 15 11 8 15 15 9 15 -13 0 -28 -19 -28
-35 0 -5 -11 -15 -25 -22 -21 -10 -26 -10 -28 1 -4 19 -29 28 -29 10 0 -7 4
-11 8 -9 4 3 10 -2 13 -11 3 -8 10 -12 16 -9 5 3 10 1 10 -6 0 -6 -8 -9 -18
-7 -11 3 -19 0 -19 -8 0 -7 4 -11 9 -8 4 3 5 -2 2 -10 -3 -9 -10 -14 -14 -11
-5 3 -9 -3 -9 -12 -1 -18 -8 -64 -11 -73 -1 -3 -2 -8 -1 -12 0 -5 -8 -8 -20
-8 -11 0 -18 4 -15 8 2 4 0 14 -5 22 -7 11 -8 8 -6 -10 3 -17 11 -26 25 -28
14 -2 22 -11 22 -22 0 -22 -15 -34 -32 -24 -8 5 -6 10 8 15 16 6 16 8 2 8 -9
1 -19 -3 -22 -8 -8 -12 21 -34 34 -26 12 7 31 -35 22 -50 -3 -5 -9 1 -14 15
l-7 25 2 -25 c1 -17 7 -24 19 -22 9 1 19 -6 22 -16 4 -11 20 -32 36 -48 30
-30 39 -56 18 -52 -8 2 -13 -7 -13 -22 0 -16 5 -24 14 -22 8 2 11 -3 8 -11 -3
-8 -1 -20 4 -28 5 -9 7 -4 5 16 -1 17 -8 29 -14 27 -7 -1 -12 7 -12 19 0 11 5
17 10 14 6 -3 13 1 16 10 5 11 10 13 19 5 6 -5 14 -7 17 -4 3 2 8 -3 12 -12 5
-13 2 -15 -19 -10 -14 4 -25 3 -25 -2 0 -12 42 -13 57 -1 6 6 16 8 21 5 5 -3
25 -6 45 -8 21 -1 37 -7 37 -13 0 -6 3 -6 8 1 9 14 72 35 83 28 5 -3 9 0 9 6
0 22 23 4 27 -20 3 -19 1 -22 -9 -12 -6 6 -16 12 -22 12 -5 0 -1 -6 9 -14 11
-8 23 -12 27 -10 9 5 6 33 -4 49 -4 6 9 26 28 44 19 19 34 38 34 42 0 5 5 9
10 9 6 0 9 -6 8 -12 -4 -19 45 -16 49 2 3 9 1 11 -4 5 -11 -13 -47 -19 -39 -6
4 5 2 12 -3 16 -14 8 8 55 26 55 7 0 12 -6 11 -12 -2 -8 7 -13 20 -13 12 0 22
5 21 10 0 6 10 13 23 17 22 7 22 7 -2 5 -14 -1 -24 -8 -22 -15 1 -6 -7 -12
-19 -12 -12 0 -17 4 -14 11 4 6 -2 13 -14 16 -15 4 -18 10 -12 22 4 9 7 31 5
49 -1 18 2 35 7 38 5 3 9 -2 9 -10 0 -19 16 -21 26 -4 4 6 3 8 -3 5 -6 -4 -13
0 -17 8 -3 9 -12 12 -23 8 -10 -3 -15 -3 -11 2 4 4 1 23 -7 42 -9 21 -10 31
-3 27 7 -4 8 -3 4 4 -4 7 -13 12 -21 12 -24 0 -27 33 -5 54 21 21 21 21 18 1
-2 -11 -10 -23 -18 -27 -11 -6 -10 -7 4 -5 11 1 20 11 22 21 5 33 -7 39 -31
16 -14 -13 -29 -19 -36 -14 -9 5 -8 9 5 14 10 3 17 10 16 14 -1 5 4 13 12 17
10 7 10 9 0 9 -7 0 -10 5 -6 12 4 6 3 8 -4 4 -6 -3 -9 -15 -7 -25 2 -13 -4
-21 -18 -25 -23 -6 -40 4 -19 11 13 5 17 29 5 36 -5 3 -17 0 -28 -4 -18 -9
-18 -9 3 -5 12 2 22 0 22 -5 0 -15 -30 -23 -43 -10 -6 6 -19 11 -29 11 -10 0
-18 5 -18 11 0 5 -4 8 -9 5 -5 -3 -11 3 -14 14 -4 15 0 20 15 20 10 0 17 -4
13 -9 -3 -6 4 -15 16 -21 17 -10 20 -9 14 1 -6 9 -3 11 9 6 10 -4 15 -3 11 4
-4 5 -15 7 -26 4 -13 -4 -19 -2 -17 7 2 7 -7 14 -19 16 -13 2 -24 0 -24 -5z"/>
<path d="M546 1022 c-3 -10 -15 -18 -26 -19 -13 -1 -18 2 -14 9 4 7 2 8 -5 4
-6 -4 -9 -12 -6 -17 8 -12 48 -5 53 9 2 7 8 10 13 7 5 -4 6 1 3 9 -8 20 -11
20 -18 -2z"/>
<path d="M636 1025 c-9 -26 -7 -32 5 -12 6 10 9 21 6 23 -2 3 -7 -2 -11 -11z"/>
<path d="M364 1014 c-18 -14 -18 -14 6 -3 31 14 36 19 24 19 -6 0 -19 -7 -30
-16z"/>
<path d="M425 1020 c-3 -5 -1 -10 4 -10 6 0 11 5 11 10 0 6 -2 10 -4 10 -3 0
-8 -4 -11 -10z"/>
<path d="M461 1016 c-9 -10 -6 -17 13 -30 14 -9 29 -16 33 -16 4 0 -5 9 -21
19 -26 18 -27 20 -10 30 11 6 14 11 8 11 -6 0 -17 -6 -23 -14z"/>
<path d="M736 1022 c-2 -4 4 -8 14 -8 10 0 16 4 14 8 -3 4 -9 8 -14 8 -5 0
-11 -4 -14 -8z"/>
<path d="M1010 1020 c0 -5 5 -10 10 -10 6 0 10 5 10 10 0 6 -4 10 -10 10 -5 0
-10 -4 -10 -10z"/>
<path d="M1090 1018 c0 -10 9 -9 35 2 17 8 16 8 -7 7 -16 -1 -28 -5 -28 -9z"/>
<path d="M390 1000 c0 -5 5 -10 10 -10 6 0 10 5 10 10 0 6 -4 10 -10 10 -5 0
-10 -4 -10 -10z"/>
<path d="M968 1003 c6 -2 9 -10 6 -15 -4 -7 -2 -8 5 -4 13 9 5 26 -12 25 -9 0
-8 -2 1 -6z"/>
<path d="M1035 1000 c-4 -6 -4 -14 -1 -17 3 -4 6 -1 6 5 0 20 16 13 17 -7 1
-14 -4 -19 -18 -16 -11 2 -23 -4 -29 -16 -7 -13 -7 -19 0 -19 5 0 10 6 10 14
0 8 10 13 23 12 17 -1 22 4 22 23 0 26 -19 39 -30 21z"/>
<path d="M1116 994 c-24 -23 -19 -30 6 -8 19 17 21 17 15 2 -4 -10 -2 -18 3
-18 13 0 13 27 1 35 -5 3 -17 -2 -25 -11z"/>
<path d="M996 985 c-3 -8 -1 -15 4 -15 6 0 10 7 10 15 0 8 -2 15 -4 15 -2 0
-6 -7 -10 -15z"/>
<path d="M1174 983 c2 -14 -2 -23 -13 -26 -14 -4 -14 -5 1 -6 22 -1 28 9 17
34 -9 19 -9 19 -5 -2z"/>
<path d="M319 973 c-13 -17 -13 -17 6 -3 11 8 22 16 24 17 2 2 0 3 -6 3 -6 0
-17 -8 -24 -17z"/>
<path d="M420 986 c0 -2 7 -6 15 -10 8 -3 15 -1 15 4 0 6 -7 10 -15 10 -8 0
-15 -2 -15 -4z"/>
<path d="M350 961 c8 -5 18 -7 22 -5 4 3 7 -5 5 -17 -2 -18 3 -23 23 -23 20 0
25 5 23 23 -2 14 1 20 9 15 7 -4 8 -3 4 5 -11 16 -28 2 -21 -18 3 -12 -1 -17
-15 -17 -13 0 -18 6 -17 19 1 14 -5 21 -23 23 -18 3 -21 2 -10 -5z"/>
<path d="M458 963 c-12 -23 -2 -48 19 -47 15 1 21 -4 20 -17 -1 -21 -12 -25
-20 -9 -3 6 -4 5 -3 -2 5 -24 31 -14 31 12 0 19 -5 25 -22 24 -15 -1 -21 4
-20 17 1 21 12 25 20 9 3 -6 4 -5 3 2 -3 14 -23 22 -28 11z"/>
<path d="M1076 953 c-6 -14 -5 -15 5 -6 7 7 10 15 7 18 -3 3 -9 -2 -12 -12z"/>
<path d="M1107 949 c-9 -6 -15 -15 -11 -20 8 -13 -28 -7 -39 6 -5 6 -7 4 -4
-5 5 -19 53 -20 49 -1 -2 9 3 11 13 7 9 -3 14 -2 10 3 -3 5 1 12 7 14 7 3 9 6
3 6 -5 0 -18 -4 -28 -10z"/>
<path d="M336 935 c5 -11 2 -13 -10 -9 -9 3 -16 2 -16 -4 0 -17 35 -6 38 11 2
10 -1 17 -7 17 -6 0 -8 -7 -5 -15z"/>
<path d="M1190 941 c0 -6 4 -13 10 -16 6 -3 7 1 4 9 -7 18 -14 21 -14 7z"/>
<path d="M1030 925 c0 -5 10 -21 21 -35 13 -17 17 -18 10 -5 -17 33 -31 51
-31 40z"/>
<path d="M1158 922 c13 -4 23 -11 23 -17 -1 -5 5 -10 12 -10 6 0 19 -5 27 -10
13 -7 13 -6 2 7 -8 9 -20 14 -28 11 -9 -3 -14 0 -12 8 2 8 -7 14 -22 16 -24 2
-24 2 -2 -5z"/>
<path d="M294 902 c4 -19 1 -22 -12 -17 -14 5 -15 4 -4 -6 17 -18 32 1 21 26
-9 18 -9 18 -5 -3z"/>
<path d="M350 895 c0 -8 2 -15 4 -15 2 0 6 7 10 15 3 8 1 15 -4 15 -6 0 -10
-7 -10 -15z"/>
<path d="M433 895 c0 -8 4 -15 9 -15 4 0 8 7 8 15 0 8 -4 15 -8 15 -5 0 -9 -7
-9 -15z"/>
<path d="M990 902 c0 -5 7 -9 15 -9 8 0 15 4 15 9 0 4 -7 8 -15 8 -8 0 -15 -4
-15 -8z"/>
<path d="M1100 900 c-9 -6 -10 -10 -3 -10 6 0 15 5 18 10 8 12 4 12 -15 0z"/>
<path d="M1137 895 c3 -10 0 -15 -8 -13 -8 2 -14 -7 -16 -22 -2 -24 -2 -24 5
-2 4 13 12 23 17 22 6 -1 11 6 13 14 2 9 -1 16 -7 16 -6 0 -8 -7 -4 -15z"/>
<path d="M396 888 c5 -8 1 -9 -12 -4 -14 5 -16 4 -7 -5 6 -6 16 -8 22 -5 14 9
14 26 0 26 -5 0 -7 -5 -3 -12z"/>
<path d="M1033 860 c0 -23 3 -28 9 -16 5 9 5 23 0 32 -6 12 -9 7 -9 -16z"/>
<path d="M1159 883 c0 -5 -3 -19 -5 -32 -2 -14 -2 -22 1 -19 8 8 17 58 10 58
-3 0 -5 -3 -6 -7z"/>
<path d="M1081 863 c-1 -13 -7 -22 -13 -20 -8 1 -13 -8 -13 -23 0 -21 4 -24
24 -22 15 2 21 0 17 -7 -4 -6 3 -16 16 -22 13 -6 25 -19 25 -30 1 -12 -3 -17
-9 -13 -7 4 -8 2 -4 -5 4 -6 12 -9 17 -6 12 8 5 48 -9 53 -7 2 -10 8 -7 13 4
5 -1 6 -10 3 -10 -4 -15 -2 -13 7 2 9 -5 14 -19 13 -16 0 -23 5 -23 18 0 11 5
16 10 13 12 -7 24 19 17 37 -3 7 -6 3 -6 -9z"/>
<path d="M1194 872 c-9 -5 -8 -10 1 -19 11 -10 13 -9 12 7 -1 11 -1 20 -2 20
0 0 -5 -4 -11 -8z"/>
<path d="M330 860 c0 -5 5 -10 10 -10 6 0 10 5 10 10 0 6 -4 10 -10 10 -5 0
-10 -4 -10 -10z"/>
<path d="M410 860 c0 -5 5 -10 10 -10 6 0 10 5 10 10 0 6 -4 10 -10 10 -5 0
-10 -4 -10 -10z"/>
<path d="M445 860 c-3 -6 1 -7 9 -4 18 7 21 14 7 14 -6 0 -13 -4 -16 -10z"/>
<path d="M1000 860 c0 -5 5 -10 10 -10 6 0 10 5 10 10 0 6 -4 10 -10 10 -5 0
-10 -4 -10 -10z"/>
<path d="M283 842 c10 -4 17 -12 15 -17 -2 -6 8 -11 22 -12 24 -2 24 -2 2 5
-13 4 -23 12 -22 17 1 6 -7 11 -17 12 -17 3 -17 2 0 -5z"/>
<path d="M379 848 c-7 -33 -7 -48 0 -53 5 -3 13 0 17 6 4 7 3 9 -4 5 -7 -4
-10 1 -9 14 1 21 12 27 20 10 3 -6 4 -5 3 2 -2 10 -25 25 -27 16z"/>
<path d="M455 841 c-3 -5 0 -13 6 -17 7 -4 9 -3 5 4 -3 6 3 12 16 15 23 4 23
4 1 6 -12 0 -24 -3 -28 -8z"/>
<path d="M1174 835 c-3 -8 -3 -19 1 -25 3 -6 -3 -10 -14 -10 -12 0 -20 5 -18
12 1 6 -11 13 -28 14 -20 2 -25 0 -16 -5 8 -5 20 -7 28 -4 8 3 13 0 11 -8 -2
-9 6 -14 21 -14 19 0 24 5 25 28 2 30 -2 34 -10 12z"/>
<path d="M430 825 c0 -8 4 -15 10 -15 5 0 7 7 4 15 -4 8 -8 15 -10 15 -2 0 -4
-7 -4 -15z"/>
<path d="M271 813 c7 -12 15 -20 18 -17 3 2 -3 12 -13 22 -17 16 -18 16 -5 -5z"/>
<path d="M1196 818 c3 -4 11 -5 19 -1 21 7 19 12 -4 10 -11 0 -18 -5 -15 -9z"/>
<path d="M350 801 c0 -6 4 -13 10 -16 6 -3 7 1 4 9 -7 18 -14 21 -14 7z"/>
<path d="M414 802 c4 -7 1 -12 -6 -12 -8 0 -6 -5 5 -11 10 -6 21 -8 24 -5 4 3
1 6 -6 6 -7 0 -10 4 -6 9 3 5 0 13 -6 17 -8 4 -9 3 -5 -4z"/>
<path d="M470 800 c0 -5 5 -10 10 -10 6 0 10 5 10 10 0 6 -4 10 -10 10 -5 0
-10 -4 -10 -10z"/>
<path d="M1216 802 c-2 -4 2 -16 10 -27 8 -10 14 -14 14 -8 0 7 -5 15 -11 19
-8 4 -7 9 2 15 10 6 10 9 2 9 -6 0 -14 -3 -17 -8z"/>
<path d="M318 782 c13 -4 23 -11 22 -17 -1 -5 6 -11 14 -13 9 -2 16 1 16 7 0
6 -7 8 -15 4 -10 -3 -15 0 -13 8 2 8 -7 14 -22 16 -24 2 -24 2 -2 -5z"/>
<path d="M1180 778 c-12 -8 -12 -9 2 -5 9 3 19 1 22 -6 3 -9 5 -9 5 0 1 18
-13 23 -29 11z"/>
<path d="M1076 767 c3 -10 9 -15 12 -12 3 3 0 11 -7 18 -10 9 -11 8 -5 -6z"/>
<path d="M255 760 c3 -5 8 -10 11 -10 2 0 4 5 4 10 0 6 -5 10 -11 10 -5 0 -7
-4 -4 -10z"/>
<path d="M390 745 c-7 -13 -17 -22 -22 -19 -14 9 -21 -23 -9 -43 9 -15 10 -13
5 11 -5 19 -3 27 3 23 10 -7 49 41 40 49 -2 2 -10 -7 -17 -21z"/>
<path d="M1035 754 c-10 -8 -14 -14 -9 -14 6 0 15 5 21 11 9 9 12 7 10 -10 -1
-13 -6 -20 -15 -16 -7 3 -10 0 -7 -6 10 -16 28 -5 31 19 5 28 -7 34 -31 16z"/>
<path d="M275 740 c-16 -7 -17 -9 -3 -9 9 -1 20 4 23 9 7 11 7 11 -20 0z"/>
<path d="M320 740 c8 -5 20 -10 25 -10 6 0 3 5 -5 10 -8 5 -19 10 -25 10 -5 0
-3 -5 5 -10z"/>
<path d="M420 746 c0 -2 7 -6 15 -10 8 -3 15 -1 15 4 0 6 -7 10 -15 10 -8 0
-15 -2 -15 -4z"/>
<path d="M1095 740 c-3 -5 -3 -10 1 -10 4 0 -1 -7 -12 -16 -18 -14 -18 -15 4
-4 12 6 20 15 17 20 -3 4 1 11 7 13 9 4 10 6 1 6 -6 1 -15 -3 -18 -9z"/>
<path d="M1195 740 c-13 -6 -15 -9 -5 -9 8 0 22 4 30 9 18 12 2 12 -25 0z"/>
<path d="M1228 730 c-10 -6 -15 -19 -13 -31 3 -15 0 -19 -10 -15 -8 3 -15 1
-15 -5 0 -6 8 -9 18 -7 9 2 17 12 17 23 0 11 6 25 15 32 18 15 12 16 -12 3z"/>
<path d="M296 721 c-4 -5 -1 -13 5 -17 8 -4 9 -3 5 4 -4 7 -3 12 3 12 5 0 12
-5 14 -10 3 -6 4 -5 3 2 -3 16 -23 22 -30 9z"/>
<path d="M392 709 c-8 -12 -9 -18 -4 -15 6 3 12 0 15 -6 2 -7 4 -1 4 15 0 15
0 27 -1 27 -1 0 -7 -9 -14 -21z"/>
<path d="M1156 713 c-6 -14 -5 -15 5 -6 7 7 10 15 7 18 -3 3 -9 -2 -12 -12z"/>
<path d="M265 700 c3 -5 11 -10 16 -10 6 0 7 5 4 10 -3 6 -11 10 -16 10 -6 0
-7 -4 -4 -10z"/>
<path d="M430 690 c6 -11 15 -18 21 -15 5 4 9 -3 9 -13 0 -15 -5 -19 -19 -15
-25 6 -32 -8 -15 -32 8 -10 14 -14 14 -9 0 6 -6 16 -12 23 -11 10 -8 12 12 9
21 -2 25 1 25 22 0 15 -5 24 -12 23 -7 -2 -13 4 -13 12 0 8 -5 15 -10 15 -7 0
-7 -7 0 -20z"/>
<path d="M1020 700 c8 -5 20 -10 25 -10 6 0 3 5 -5 10 -8 5 -19 10 -25 10 -5
0 -3 -5 5 -10z"/>
<path d="M1110 700 c0 -5 7 -10 16 -10 9 0 12 -5 8 -12 -4 -7 -3 -8 4 -4 16
10 15 14 -8 26 -14 7 -20 7 -20 0z"/>
<path d="M1175 699 c-11 -16 -1 -19 13 -3 7 8 8 14 3 14 -5 0 -13 -5 -16 -11z"/>
<path d="M299 688 c-10 -20 -3 -51 15 -59 18 -9 19 -8 6 3 -8 7 -17 22 -18 32
-3 18 -2 19 15 5 16 -13 17 -13 4 4 -13 16 -19 20 -22 15z"/>
<path d="M336 662 c1 -22 6 -27 25 -27 15 0 23 5 21 14 -2 8 3 11 11 8 8 -3
20 -1 28 4 9 5 4 7 -16 5 -17 -1 -29 -8 -27 -14 1 -7 -7 -12 -17 -12 -14 0
-18 5 -14 19 3 10 1 21 -4 24 -5 3 -8 -7 -7 -21z"/>
<path d="M260 675 c0 -5 5 -17 10 -25 5 -8 10 -10 10 -5 0 6 -5 17 -10 25 -5
8 -10 11 -10 5z"/>
<path d="M1090 657 c0 -8 3 -16 6 -20 8 -8 34 3 34 15 0 6 -8 4 -17 -3 -15
-12 -16 -12 -10 4 3 9 2 17 -3 17 -6 0 -10 -6 -10 -13z"/>
<path d="M1150 655 c0 -8 2 -15 4 -15 2 0 6 7 10 15 3 8 1 15 -4 15 -6 0 -10
-7 -10 -15z"/>
<path d="M1175 651 c-6 -11 13 -26 22 -17 4 3 1 6 -6 6 -7 0 -9 5 -6 10 3 6 4
10 1 10 -3 0 -7 -4 -11 -9z"/>
<path d="M990 640 c0 -5 5 -10 10 -10 6 0 10 5 10 10 0 6 -4 10 -10 10 -5 0
-10 -4 -10 -10z"/>
<path d="M1071 645 c1 -19 18 -51 18 -35 0 8 -4 22 -9 30 -5 8 -9 11 -9 5z"/>
<path d="M1215 640 c-3 -6 1 -7 9 -4 18 7 21 14 7 14 -6 0 -13 -4 -16 -10z"/>
<path d="M275 620 c-3 -5 -1 -10 4 -10 6 0 11 5 11 10 0 6 -2 10 -4 10 -3 0
-8 -4 -11 -10z"/>
<path d="M380 618 c-12 -8 -12 -9 3 -4 20 6 21 2 7 -24 -9 -16 -7 -18 11 -15
12 3 24 7 28 11 3 4 -2 4 -12 1 -15 -6 -17 -3 -12 12 7 24 -6 33 -25 19z"/>
<path d="M470 620 c0 -5 5 -10 10 -10 6 0 10 5 10 10 0 6 -4 10 -10 10 -5 0
-10 -4 -10 -10z"/>
<path d="M1040 619 c0 -5 5 -7 10 -4 6 3 10 8 10 11 0 2 -4 4 -10 4 -5 0 -10
-5 -10 -11z"/>
<path d="M1130 620 c0 -5 5 -10 10 -10 6 0 10 5 10 10 0 6 -4 10 -10 10 -5 0
-10 -4 -10 -10z"/>
<path d="M520 612 c0 -7 -6 -11 -12 -9 -8 1 -13 -8 -13 -20 0 -13 4 -23 9 -22
5 0 13 -5 18 -13 8 -10 9 -10 5 2 -2 8 -10 14 -16 13 -6 -2 -11 6 -11 18 0 11
4 18 9 14 11 -6 26 13 17 22 -3 4 -6 1 -6 -5z"/>
<path d="M1115 603 c5 -19 3 -22 -12 -17 -15 5 -15 4 -3 -5 21 -14 35 3 21 26
-11 16 -11 16 -6 -4z"/>
<path d="M1191 611 c-8 -5 -16 -20 -18 -33 -2 -17 -1 -19 6 -8 5 8 7 18 5 22
-3 4 2 8 10 8 9 0 16 5 16 10 0 12 -1 12 -19 1z"/>
<path d="M299 608 c-6 -26 -6 -37 2 -32 5 3 7 10 4 15 -4 5 2 9 12 9 11 0 19
-8 20 -19 1 -14 -3 -18 -13 -14 -8 3 -14 1 -14 -5 0 -6 8 -9 18 -8 27 4 22 50
-6 54 -12 2 -22 2 -23 0z"/>
<path d="M460 590 c6 -11 13 -20 16 -20 2 0 0 9 -6 20 -6 11 -13 20 -16 20 -2
0 0 -9 6 -20z"/>
<path d="M1054 595 c-4 -8 -9 -13 -13 -11 -4 3 -8 -5 -8 -17 -2 -18 0 -19 8
-7 20 31 30 50 24 50 -3 0 -8 -7 -11 -15z"/>
<path d="M530 582 c0 -5 7 -9 15 -9 8 0 12 4 9 9 -3 4 -9 8 -15 8 -5 0 -9 -4
-9 -8z"/>
<path d="M955 580 c-3 -4 -2 -15 1 -24 5 -12 2 -15 -12 -10 -15 5 -16 4 -4 -4
19 -14 32 -5 25 19 -5 14 -3 17 9 13 9 -3 16 -4 16 -1 0 10 -29 16 -35 7z"/>
<path d="M352 550 c-7 -11 -8 -20 -3 -20 9 0 24 30 18 36 -1 2 -8 -6 -15 -16z"/>
<path d="M419 562 c-1 -4 -1 -14 0 -22 1 -9 -7 -16 -19 -17 -18 -2 -19 1 -10
13 8 8 8 14 2 14 -13 0 -24 -28 -13 -34 18 -11 46 2 45 22 0 14 5 20 18 19 12
-1 16 -7 13 -18 -7 -20 10 -35 21 -18 4 8 3 9 -4 5 -8 -5 -11 0 -9 15 1 16 -4
23 -20 25 -13 2 -24 1 -24 -4z"/>
<path d="M1049 546 c-9 -18 -8 -19 3 -6 7 8 22 17 33 18 16 3 18 1 8 -9 -7 -7
-13 -18 -13 -23 0 -6 6 -2 12 9 15 25 13 30 -12 31 -12 1 -25 -8 -31 -20z"/>
<path d="M1153 552 c0 -11 5 -18 9 -16 4 3 8 0 8 -7 0 -7 3 -10 6 -6 3 3 -1
16 -9 28 -16 22 -16 22 -14 1z"/>
<path d="M1190 559 c0 -5 5 -7 10 -4 6 3 10 8 10 11 0 2 -4 4 -10 4 -5 0 -10
-5 -10 -11z"/>
<path d="M983 541 c-7 -11 -9 -22 -6 -25 10 -10 33 -7 33 4 0 5 -8 6 -17 3
-16 -6 -16 -5 -4 10 8 10 12 19 10 22 -3 2 -10 -4 -16 -14z"/>
<path d="M487 539 c7 -7 15 -10 18 -7 3 3 -2 9 -12 12 -14 6 -15 5 -6 -5z"/>
<path d="M560 539 c0 -5 5 -7 10 -4 6 3 10 8 10 11 0 2 -4 4 -10 4 -5 0 -10
-5 -10 -11z"/>
<path d="M1115 540 c-9 -14 4 -32 17 -24 7 5 9 1 5 -9 -3 -10 -2 -17 4 -17 6
0 9 8 7 18 -2 9 -10 16 -16 15 -16 -4 -15 14 1 20 9 4 9 6 0 6 -6 1 -15 -3
-18 -9z"/>
<path d="M540 529 c0 -5 -4 -8 -8 -5 -4 2 -14 0 -22 -5 -11 -7 -9 -8 9 -6 21
3 45 27 27 27 -3 0 -6 -5 -6 -11z"/>
<path d="M910 536 c0 -3 9 -10 20 -16 11 -6 20 -8 20 -6 0 3 -9 10 -20 16 -11
6 -20 8 -20 6z"/>
<path d="M315 520 c3 -5 8 -10 11 -10 2 0 4 5 4 10 0 6 -5 10 -11 10 -5 0 -7
-4 -4 -10z"/>
<path d="M1027 500 c-8 -11 -17 -17 -20 -14 -12 13 -19 -25 -8 -43 9 -15 10
-13 5 11 -5 21 -4 27 5 22 6 -4 14 0 17 8 3 9 9 14 13 11 4 -2 8 2 8 10 0 20
-3 19 -20 -5z"/>
<path d="M344 495 c-18 -15 -18 -15 0 -8 13 4 17 3 12 -5 -5 -8 -2 -10 9 -6
11 5 14 2 9 -12 -5 -16 -4 -16 5 -4 8 11 7 18 -4 26 -8 6 -12 14 -8 17 12 13
-3 7 -23 -8z"/>
<path d="M436 495 c4 -8 8 -15 10 -15 2 0 4 7 4 15 0 8 -4 15 -10 15 -5 0 -7
-7 -4 -15z"/>
<path d="M475 500 c-3 -6 -1 -18 5 -27 9 -16 10 -15 5 4 -5 18 -3 22 9 17 9
-3 16 -4 16 -1 0 10 -30 16 -35 7z"/>
<path d="M836 502 c-2 -4 -1 -14 4 -22 7 -11 9 -9 7 8 -1 24 -3 26 -11 14z"/>
<path d="M951 500 c-9 -5 -4 -7 13 -7 29 0 32 2 13 10 -8 3 -20 2 -26 -3z"/>
<path d="M1090 506 c0 -2 7 -7 16 -10 8 -3 12 -2 9 4 -6 10 -25 14 -25 6z"/>
<path d="M675 489 c-4 -6 -5 -12 -2 -15 2 -3 7 2 10 11 7 17 1 20 -8 4z"/>
<path d="M410 480 c-9 -6 -10 -10 -3 -10 6 0 15 5 18 10 8 12 4 12 -15 0z"/>
<path d="M554 477 c5 -15 2 -17 -13 -12 -24 7 -33 -6 -19 -25 8 -12 9 -11 4 3
-5 15 -2 17 13 12 24 -7 33 6 19 25 -8 12 -9 11 -4 -3z"/>
<path d="M694 478 c-3 -5 -3 -12 0 -15 3 -4 6 -2 6 3 0 5 9 10 20 10 11 0 20
-6 20 -13 0 -7 5 -13 10 -13 7 0 8 6 2 17 -11 18 -49 25 -58 11z"/>
<path d="M790 480 c0 -5 5 -10 10 -10 6 0 10 5 10 10 0 6 -4 10 -10 10 -5 0
-10 -4 -10 -10z"/>
<path d="M916 473 c-6 -14 -5 -15 5 -6 7 7 10 15 7 18 -3 3 -9 -2 -12 -12z"/>
<path d="M1053 474 c-3 -8 -9 -12 -13 -9 -5 3 -11 2 -14 -3 -2 -4 4 -9 15 -9
10 -1 19 4 19 10 0 7 9 13 19 14 14 1 19 -4 16 -17 -2 -11 1 -23 7 -26 7 -4 8
-2 4 4 -4 7 -1 12 6 12 10 0 10 2 0 9 -8 4 -13 12 -13 17 2 15 -40 13 -46 -2z"/>
<path d="M819 468 c-1 -7 -1 -16 0 -20 0 -5 -8 -8 -20 -8 -11 0 -18 4 -14 9 3
5 1 12 -4 15 -5 4 -8 -2 -7 -11 4 -28 48 -24 52 5 2 12 2 22 -1 22 -3 0 -6 -6
-6 -12z"/>
<path d="M947 469 c-9 -6 -14 -15 -11 -21 5 -7 1 -9 -9 -5 -10 3 -17 2 -17 -4
0 -6 8 -9 18 -7 9 2 16 10 15 16 -2 7 4 12 12 12 8 0 15 5 15 10 0 12 0 12
-23 -1z"/>
<path d="M420 460 c-9 -6 -10 -10 -3 -10 6 0 15 5 18 10 8 12 4 12 -15 0z"/>
<path d="M450 460 c0 -5 5 -10 10 -10 6 0 10 5 10 10 0 6 -4 10 -10 10 -5 0
-10 -4 -10 -10z"/>
<path d="M630 459 c-12 -8 -10 -9 8 -4 16 5 22 3 20 -7 -2 -8 6 -13 20 -12 15
0 22 -5 22 -18 0 -10 -5 -17 -12 -15 -6 1 -13 -11 -14 -28 -2 -20 0 -25 5 -16
5 8 7 20 4 28 -3 8 0 13 8 11 9 -2 14 6 14 22 0 20 -4 24 -23 22 -13 -2 -21 1
-20 9 4 16 -14 21 -32 8z"/>
<path d="M850 459 c-12 -8 -10 -9 7 -4 19 5 22 3 17 -12 -5 -14 -4 -15 4 -3
19 25 0 38 -28 19z"/>
<path d="M716 447 c3 -10 9 -15 12 -12 3 3 0 11 -7 18 -10 9 -11 8 -5 -6z"/>
<path d="M483 443 c-7 -3 -13 -9 -13 -15 0 -7 5 -6 14 2 12 9 15 8 13 -10 -1
-14 -7 -20 -21 -18 -13 2 -22 -4 -24 -16 -6 -28 12 -40 29 -19 13 16 12 17 -3
4 -16 -12 -18 -11 -18 6 0 14 7 19 21 19 15 -1 23 6 25 21 4 24 -4 33 -23 26z"/>
<path d="M555 434 c-10 -8 -14 -14 -9 -14 6 0 16 6 23 13 11 10 13 9 8 -5 -4
-10 -2 -18 3 -18 12 0 13 27 2 34 -4 2 -16 -2 -27 -10z"/>
<path d="M976 422 c1 -22 6 -27 25 -27 14 0 23 5 22 13 -2 6 6 12 17 12 11 0
19 -5 18 -12 -2 -6 6 -13 17 -15 18 -3 18 -2 2 5 -10 4 -18 12 -18 17 1 6 -9
10 -21 10 -13 0 -22 -5 -20 -12 1 -7 -7 -13 -17 -13 -14 0 -18 5 -14 19 3 10
1 21 -4 24 -5 3 -8 -7 -7 -21z"/>
<path d="M1070 443 c0 -6 8 -17 18 -24 16 -13 16 -13 2 6 -8 11 -16 22 -17 24
-2 2 -3 0 -3 -6z"/>
<path d="M380 436 c0 -2 7 -6 15 -10 8 -3 15 -1 15 4 0 6 -7 10 -15 10 -8 0
-15 -2 -15 -4z"/>
<path d="M436 425 c-3 -8 -1 -15 4 -15 6 0 10 7 10 15 0 8 -2 15 -4 15 -2 0
-6 -7 -10 -15z"/>
<path d="M893 420 c2 -15 8 -24 16 -22 8 2 11 -3 8 -11 -3 -8 -1 -20 4 -28 6
-10 8 -6 6 13 -1 15 -6 27 -12 27 -5 0 -13 10 -17 23 -7 22 -7 22 -5 -2z"/>
<path d="M615 420 c-3 -5 -3 -10 2 -11 4 -1 -3 -5 -17 -10 l-25 -8 25 2 c15 2
24 8 22 16 -2 10 5 12 25 7 21 -5 24 -4 13 4 -19 13 -37 13 -45 0z"/>
<path d="M740 426 c0 -2 7 -6 15 -10 8 -3 15 -1 15 4 0 6 -7 10 -15 10 -8 0
-15 -2 -15 -4z"/>
<path d="M830 420 c0 -5 7 -7 15 -4 8 4 15 8 15 10 0 2 -7 4 -15 4 -8 0 -15
-4 -15 -10z"/>
<path d="M940 420 c-8 -5 -10 -10 -5 -10 6 0 17 5 25 10 8 5 11 10 5 10 -5 0
-17 -5 -25 -10z"/>
<path d="M521 413 c-1 -17 16 -25 25 -12 4 7 3 9 -4 5 -5 -3 -13 0 -15 6 -4 9
-6 10 -6 1z"/>
<path d="M404 399 c-4 -7 -3 -9 4 -5 5 3 13 0 15 -6 4 -9 6 -10 6 -1 1 17 -16
25 -25 12z"/>
<path d="M737 404 c-3 -4 1 -17 10 -30 9 -14 18 -22 21 -19 3 2 11 -3 19 -13
12 -16 14 -16 26 0 8 10 17 15 20 12 3 -3 10 4 17 15 7 14 7 21 0 21 -5 0 -10
-7 -10 -16 0 -8 -4 -13 -9 -9 -6 3 -15 -3 -20 -12 -11 -17 -11 -17 -22 0 -5 9
-14 15 -20 12 -5 -4 -9 1 -9 9 0 9 -5 16 -11 16 -5 0 -7 5 -4 10 7 11 2 14 -8
4z"/>
<path d="M776 401 c-3 -5 1 -14 9 -21 12 -10 18 -10 30 0 18 15 11 30 -15 30
-10 0 -21 -4 -24 -9z m36 -13 c-9 -9 -15 -9 -24 0 -9 9 -7 12 12 12 19 0 21
-3 12 -12z"/>
<path d="M873 384 c0 -17 2 -22 7 -13 5 6 6 18 3 26 -8 19 -10 16 -10 -13z"/>
<path d="M557 393 c-10 -9 -9 -23 1 -23 5 0 9 7 9 15 0 17 -1 18 -10 8z"/>
<path d="M636 391 c-3 -5 1 -11 9 -14 9 -4 12 -1 8 9 -6 16 -10 17 -17 5z"/>
<path d="M950 390 c0 -5 5 -10 11 -10 5 0 7 5 4 10 -3 6 -8 10 -11 10 -2 0 -4
-4 -4 -10z"/>
<path d="M716 377 c3 -10 9 -15 12 -12 3 3 0 11 -7 18 -10 9 -11 8 -5 -6z"/>
<path d="M1032 378 c2 -6 10 -13 16 -14 7 -1 8 0 2 3 -5 2 -8 9 -4 14 3 5 0 9
-6 9 -7 0 -10 -5 -8 -12z"/>
<path d="M990 376 c0 -3 9 -10 20 -16 11 -6 20 -8 20 -6 0 3 -9 10 -20 16 -11
6 -20 8 -20 6z"/>
<path d="M496 362 c-3 -5 1 -15 9 -22 8 -7 12 -16 9 -21 -3 -5 0 -9 5 -9 16 0
14 11 -6 32 -15 17 -15 18 5 18 12 0 21 -6 20 -12 -2 -7 8 -14 22 -15 24 -2
24 -2 2 5 -13 4 -22 12 -20 17 4 13 -38 19 -46 7z"/>
<path d="M619 368 c-11 -40 1 -73 17 -47 5 8 3 9 -5 5 -15 -10 -11 25 4 36 6
5 5 8 -2 8 -7 0 -13 -1 -14 -2z"/>
<path d="M694 355 c-3 -8 -3 -19 1 -25 3 -6 -3 -10 -14 -10 -12 0 -20 5 -18
11 1 6 -5 14 -13 16 -12 4 -12 3 -2 -5 8 -5 13 -13 13 -18 -1 -5 9 -9 21 -9
16 0 22 6 22 28 2 30 -2 34 -10 12z"/>
<path d="M894 362 c7 -12 -4 -16 -34 -13 -13 2 -13 0 -1 -8 8 -5 20 -7 28 -4
8 3 13 0 11 -8 -2 -9 6 -14 20 -14 12 0 22 4 21 9 0 5 5 13 13 18 10 8 10 9
-2 5 -8 -2 -14 -10 -12 -16 1 -6 -7 -11 -17 -11 -14 0 -19 6 -16 20 2 11 -1
23 -7 26 -7 4 -8 2 -4 -4z"/>
<path d="M970 363 c5 -2 8 -8 6 -12 -3 -4 0 -13 5 -21 7 -11 8 -9 6 9 -2 14
-9 26 -16 27 -6 1 -7 0 -1 -3z"/>
<path d="M716 338 c3 -4 11 -5 19 -1 21 7 19 12 -4 10 -11 0 -18 -5 -15 -9z"/>
<path d="M590 323 c0 -6 8 -17 18 -24 16 -13 16 -13 2 6 -8 11 -16 22 -17 24
-2 2 -3 0 -3 -6z"/>
<path d="M736 322 c-2 -4 2 -16 10 -27 8 -10 14 -14 14 -9 0 6 -6 16 -12 23
-11 11 -10 13 5 8 9 -4 17 -2 17 3 0 12 -27 13 -34 2z"/>
<path d="M830 320 c0 -5 7 -7 15 -4 11 5 14 1 9 -12 -5 -15 -4 -16 4 -4 6 8 8
18 6 22 -7 11 -34 10 -34 -2z"/>
<path d="M956 313 c-6 -14 -5 -15 5 -6 7 7 10 15 7 18 -3 3 -9 -2 -12 -12z"/>
<path d="M814 296 c1 -12 10 -20 26 -23 18 -2 21 -1 10 6 -8 5 -17 8 -21 5 -4
-2 -9 4 -12 13 -3 15 -4 15 -3 -1z"/>
<path d="M565 300 c3 -5 8 -10 11 -10 2 0 4 5 4 10 0 6 -5 10 -11 10 -5 0 -7
-4 -4 -10z"/>
<path d="M634 299 c-3 -6 -1 -16 5 -22 9 -9 11 -8 5 6 -5 13 -2 16 10 11 9 -3
16 -4 16 -1 0 11 -30 16 -36 6z"/>
<path d="M712 305 c4 -4 0 -13 -9 -20 -13 -9 -13 -14 -3 -20 9 -5 11 -4 6 3
-4 7 -1 12 8 12 19 0 21 16 4 26 -7 4 -10 4 -6 -1z"/>
<path d="M874 299 c-3 -6 -1 -16 5 -22 9 -9 11 -8 5 6 -5 13 -2 16 10 11 9 -3
16 -4 16 -1 0 11 -30 16 -36 6z"/>
<path d="M793 271 c0 -11 5 -18 9 -15 4 3 5 11 1 19 -7 21 -12 19 -10 -4z"/>
<path d="M725 260 c-3 -6 1 -7 9 -4 18 7 21 14 7 14 -6 0 -13 -4 -16 -10z"/>
</g>
</svg>
